<svg width="21" height="17" viewBox="0 0 21 17" fill="none" xmlns="http://www.w3.org/2000/svg">
<path d="M20.9 4.3868V13.6125C20.9 15.2075 19.6075 16.5 18.0125 16.5H2.8875C2.12169 16.5 1.38724 16.1958 0.845729 15.6543C0.304218 15.1128 0 14.3783 0 13.6125V4.3868L10.1189 9.9528C10.3252 10.0661 10.5754 10.0661 10.7811 9.9528L20.9 4.38625V4.3868ZM18.0125 1.24181e-08C18.7663 7.00455e-05 19.4901 0.294884 20.0294 0.821467C20.5688 1.34805 20.8808 2.06465 20.8989 2.8182L10.45 8.5657L0.00109992 2.81765L0.0022001 2.76815C0.0330015 2.02359 0.350464 1.31977 0.8882 0.803867C1.42594 0.287964 2.1423 -6.90541e-05 2.8875 1.24181e-08H18.0125Z" fill="#3C3939"/>
</svg>
