<svg width="16" height="19" viewBox="0 0 16 19" fill="none" xmlns="http://www.w3.org/2000/svg">
<path d="M1 2.7V16.3C1 16.7509 1.17911 17.1833 1.49792 17.5021C1.81673 17.8209 2.24913 18 2.7 18H12.9C13.3509 18 13.7833 17.8209 14.1021 17.5021C14.4209 17.1833 14.6 16.7509 14.6 16.3V6.3907C14.6 6.16423 14.5547 5.94004 14.4668 5.73131C14.3789 5.52258 14.2503 5.33351 14.0883 5.1752L10.3143 1.4845C9.99671 1.17396 9.57019 1.00006 9.126 1H2.7C2.24913 1 1.81673 1.17911 1.49792 1.49792C1.17911 1.81673 1 2.24913 1 2.7V2.7Z" stroke="#3C3939" stroke-width="1.7" stroke-linecap="round" stroke-linejoin="round"/>
<path d="M9.5 1V4.4C9.5 4.85087 9.67911 5.28327 9.99792 5.60208C10.3167 5.92089 10.7491 6.1 11.2 6.1H14.6" stroke="#3C3939" stroke-width="1.7" stroke-linejoin="round"/>
</svg>
