<svg width="22" height="22" viewBox="0 0 22 22" fill="none" xmlns="http://www.w3.org/2000/svg">
<path d="M11 0C17.0754 0 22 4.92456 22 11C22 17.0754 17.0754 22 11 22C4.92456 22 0 17.0754 0 11C0 4.92456 4.92456 0 11 0ZM7.47312 5.26763L4.55606 6.89838C4.42495 6.96619 4.31524 7.06907 4.23913 7.19555C4.16302 7.32203 4.12351 7.46715 4.125 7.61475V10.901C4.125 11.198 4.27694 11.4696 4.55606 11.6181L7.47381 13.2488C7.7275 13.3966 8.0575 13.3966 8.33594 13.2488L10.3152 12.1364L11.6593 11.3706L13.6386 10.2589C13.8923 10.1104 14.2216 10.1104 14.5007 10.2589L16.0483 11.1238C16.3027 11.2716 16.4794 11.5431 16.4794 11.8401V13.5946C16.4794 13.8909 16.3281 14.1625 16.0483 14.311L14.5014 15.2006C14.2471 15.3491 13.9171 15.3491 13.6386 15.2006L12.0911 14.3357C11.8367 14.1872 11.6593 13.9157 11.6593 13.6194V12.4823L10.3152 13.2488V14.3853C10.3152 14.6816 10.4672 14.9538 10.7463 15.1016L13.6641 16.7324C13.9178 16.8809 14.2471 16.8809 14.5262 16.7324L17.4439 15.1016C17.6976 14.9538 17.875 14.6823 17.875 14.3853V11.099C17.8765 10.9514 17.837 10.8063 17.7609 10.6798C17.6848 10.5533 17.575 10.4504 17.4439 10.3826L14.5014 8.72644C14.2471 8.57862 13.9171 8.57862 13.6386 8.72644L11.6593 9.86356L10.3152 10.6047L8.33594 11.7411C8.08225 11.8896 7.75294 11.8896 7.47381 11.7411L5.90081 10.8515C5.64713 10.7037 5.46975 10.4321 5.46975 10.1351V8.38062C5.46975 8.08431 5.62169 7.81275 5.90081 7.66425L7.44769 6.79938C7.70206 6.65088 8.03206 6.65088 8.31119 6.79938L9.85806 7.66425C10.1124 7.81275 10.2898 8.08431 10.2898 8.38062V9.51775L11.6339 8.75119V7.61475C11.6354 7.46715 11.5959 7.32203 11.5197 7.19555C11.4436 7.06907 11.3339 6.96619 11.2028 6.89838L8.33594 5.26763C8.08225 5.11912 7.75294 5.11912 7.47381 5.26763H7.47312Z" fill="#853AFF"/>
</svg>
