<svg width="195" height="223" viewBox="0 0 195 223" fill="none" xmlns="http://www.w3.org/2000/svg">
<rect x="35.4585" y="100.702" width="123.395" height="63.8253" fill="#FFE7E7"/>
<rect x="37.586" y="102.829" width="119.14" height="59.5702" stroke="#DF1024" stroke-opacity="0.5" stroke-width="4.25502"/>
<path d="M0 134.742L35.4585 100.702V164.527H0V134.742Z" fill="#FF7B88" fill-opacity="0.5"/>
<path d="M1.41834 163.109V135.346L34.0401 104.03V163.109H1.41834Z" stroke="#DF1024" stroke-opacity="0.5" stroke-width="2.83668"/>
<path d="M194.312 134.742L158.854 100.702V164.527H194.312V134.742Z" fill="#FF7B88" fill-opacity="0.5"/>
<path d="M192.894 163.109V135.346L160.272 104.03V163.109H192.894Z" stroke="#DF1024" stroke-opacity="0.5" stroke-width="2.83668"/>
<path d="M194.312 134.742V222.679H0V134.742H70.2078L78.7178 155.608H114.176L123.396 134.742H194.312Z" fill="#FFE7E7"/>
<path d="M114.176 158.445H116.024L116.771 156.755L125.243 137.579H191.476V219.842H2.83668V137.579H68.3012L76.0912 156.68L76.8112 158.445H78.7178H114.176Z" stroke="#DF1024" stroke-opacity="0.5" stroke-width="5.67336"/>
<g clip-path="url(#clip0_634_55)">
<path d="M94.9577 70.0415L93.9133 70.4245L96.8321 64.1252L93.3877 62.5293L63.3803 127.29L66.8247 128.886L71.3395 119.142L108.03 105.687C108.974 105.339 109.742 104.631 110.165 103.718C110.589 102.805 110.632 101.761 110.287 100.816L107.019 91.9041C106.846 91.4314 106.492 91.0469 106.035 90.8353C105.578 90.6236 105.056 90.6021 104.583 90.7754C103.638 91.1221 102.593 91.079 101.68 90.6557C100.766 90.2324 100.058 89.4634 99.7115 88.518C99.3648 87.5726 99.4078 86.5283 99.8312 85.6146C100.255 84.701 101.023 83.9929 101.969 83.6462C102.442 83.4729 102.826 83.1189 103.038 82.662C103.249 82.2052 103.271 81.683 103.098 81.2103L99.8295 72.2988C99.482 71.3541 98.7738 70.5858 97.8605 70.1626C96.9471 69.7394 95.9032 69.6958 94.9577 70.0415ZM98.9624 80.9616C97.5769 81.9179 96.5485 83.3075 96.0389 84.912C95.5292 86.5164 95.5672 88.2448 96.1468 89.8253C96.7264 91.4058 97.8148 92.7489 99.2409 93.6435C100.667 94.5381 102.35 94.9334 104.025 94.7673L106.723 102.123L94.2465 106.698L92.2857 101.351L88.7211 102.658L90.6819 108.005L73.5969 114.271L84.4165 90.9201L87.4139 99.0938L90.9785 97.7865L86.6739 86.0483L91.6559 75.2963L96.2649 73.6061L98.9624 80.9616ZM56.1872 96.6481L53.4898 89.2926L80.2243 79.4885L78.9171 75.9239L52.1826 85.728C51.2379 86.0755 50.4696 86.7837 50.0464 87.697C49.6232 88.6104 49.5796 89.6543 49.9252 90.5998L53.1933 99.5113C53.3666 99.984 53.7206 100.368 54.1774 100.58C54.6343 100.792 55.1565 100.813 55.6292 100.64C56.5745 100.293 57.6189 100.336 58.5326 100.76C59.4462 101.183 60.1543 101.952 60.501 102.897C60.8477 103.843 60.8046 104.887 60.3812 105.801C59.9579 106.714 59.189 107.422 58.2436 107.769C57.7709 107.942 57.3864 108.297 57.1747 108.753C56.9631 109.21 56.9415 109.732 57.1149 110.205L60.3829 119.117L63.9475 117.809L61.2501 110.454C62.6365 109.498 63.6659 108.108 64.1761 106.503C64.6864 104.898 64.6486 103.169 64.0688 101.588C63.489 100.007 62.3999 98.6633 60.9731 97.7687C59.5462 96.8742 57.8624 96.4793 56.1866 96.6463L56.1872 96.6481Z" fill="#DF1024" fill-opacity="0.5"/>
</g>
<g clip-path="url(#clip1_634_55)">
<path d="M103.267 11.6084L104.226 11.8703L101.149 6.48162L104.096 4.79899L135.732 60.1982L132.786 61.8808L128.026 53.5457L94.3293 44.3459C93.4618 44.1077 92.7242 43.5352 92.278 42.754C91.8319 41.9728 91.7137 41.0466 91.9494 40.1784L94.1838 31.994C94.3024 31.5598 94.5885 31.1906 94.9793 30.9674C95.3701 30.7443 95.8335 30.6855 96.2676 30.804C97.1359 31.041 98.0627 30.9235 98.8443 30.4771C99.6259 30.0308 100.198 29.2923 100.435 28.424C100.672 27.5558 100.555 26.6289 100.108 25.8474C99.662 25.0658 98.9235 24.4935 98.0552 24.2565C97.6211 24.138 97.2518 23.8518 97.0287 23.4611C96.8055 23.0703 96.7467 22.6068 96.8652 22.1727L99.0997 13.9883C99.3376 13.1206 99.9099 12.3826 100.691 11.9364C101.473 11.4903 102.399 11.3723 103.267 11.6084ZM100.529 21.6375C101.836 22.3841 102.857 23.5437 103.432 24.9339C104.008 26.3242 104.105 27.8663 103.709 29.3179C103.313 30.7694 102.445 32.0482 101.243 32.953C100.041 33.8579 98.572 34.3376 97.0675 34.3168L95.2231 41.0721L106.681 44.2004L108.022 39.2898L111.296 40.1836L109.955 45.0942L125.646 49.3782L114.239 29.4031L112.189 36.9098L108.916 36.016L111.859 25.2356L106.606 16.0378L102.373 14.8821L100.529 21.6375ZM139.814 32.363L141.658 25.6076L117.105 18.9042L117.999 15.6304L142.552 22.3339C143.42 22.5717 144.158 23.1441 144.604 23.9255C145.05 24.7068 145.168 25.6332 144.932 26.5014L142.698 34.6858C142.579 35.1199 142.293 35.4892 141.902 35.7124C141.512 35.9355 141.048 35.9943 140.614 35.8758C139.746 35.6387 138.819 35.7563 138.037 36.2026C137.256 36.649 136.683 37.3875 136.446 38.2558C136.209 39.124 136.327 40.0509 136.773 40.8324C137.22 41.614 137.958 42.1862 138.826 42.4233C139.261 42.5418 139.63 42.8279 139.853 43.2187C140.076 43.6095 140.135 44.0729 140.016 44.5071L137.782 52.6915L134.508 51.7977L136.352 45.0423C135.045 44.296 134.023 43.1364 133.447 41.7458C132.871 40.3551 132.773 38.8124 133.17 37.3602C133.566 35.9081 134.434 34.629 135.637 33.7241C136.84 32.8191 138.309 32.3398 139.815 32.3614L139.814 32.363Z" fill="#DF1024" fill-opacity="0.5"/>
</g>
<path d="M24.0858 199.575V185.083H26.0796L34.4868 195.957H33.9523V185.083H36.419V199.575H34.4251L26.0385 188.701H26.5524V199.575H24.0858ZM44.0837 199.78C43.0149 199.78 42.0899 199.561 41.3088 199.122C40.5277 198.684 39.9178 198.06 39.4793 197.252C39.0545 196.443 38.8421 195.484 38.8421 194.374C38.8421 193.264 39.0545 192.312 39.4793 191.517C39.9178 190.708 40.5277 190.085 41.3088 189.646C42.0899 189.208 43.0149 188.989 44.0837 188.989C45.1526 188.989 46.0776 189.208 46.8587 189.646C47.6535 190.085 48.2633 190.708 48.6881 191.517C49.1267 192.312 49.3459 193.264 49.3459 194.374C49.3459 195.484 49.1267 196.443 48.6881 197.252C48.2633 198.06 47.6535 198.684 46.8587 199.122C46.0776 199.561 45.1526 199.78 44.0837 199.78ZM44.0837 197.807C44.8922 197.807 45.5363 197.526 46.0159 196.964C46.4956 196.389 46.7354 195.525 46.7354 194.374C46.7354 193.223 46.4956 192.367 46.0159 191.805C45.5363 191.243 44.8922 190.962 44.0837 190.962C43.2752 190.962 42.6312 191.243 42.1515 191.805C41.6719 192.367 41.4321 193.223 41.4321 194.374C41.4321 195.525 41.6719 196.389 42.1515 196.964C42.6312 197.526 43.2752 197.807 44.0837 197.807ZM57.4079 199.575V185.083H62.6701C64.3283 185.083 65.726 185.371 66.8634 185.946C68.0145 186.508 68.8847 187.331 69.4739 188.413C70.0632 189.482 70.3578 190.784 70.3578 192.319C70.3578 193.84 70.0632 195.142 69.4739 196.224C68.8847 197.307 68.0145 198.136 66.8634 198.711C65.726 199.287 64.3283 199.575 62.6701 199.575H57.4079ZM60.0596 197.375H62.5057C64.2597 197.375 65.5616 196.957 66.4112 196.121C67.2608 195.285 67.6856 194.018 67.6856 192.319C67.6856 190.606 67.2608 189.338 66.4112 188.516C65.5616 187.68 64.2597 187.262 62.5057 187.262H60.0596V197.375ZM76.8681 199.78C75.9637 199.78 75.1689 199.568 74.4837 199.143C73.7985 198.705 73.2641 198.081 72.8804 197.273C72.4967 196.464 72.3048 195.498 72.3048 194.374C72.3048 193.251 72.4967 192.291 72.8804 191.496C73.2641 190.688 73.7985 190.071 74.4837 189.646C75.1689 189.208 75.9637 188.989 76.8681 188.989C77.7451 188.989 78.5125 189.208 79.1703 189.646C79.8418 190.071 80.2871 190.647 80.5064 191.373H80.2803L80.5064 189.194H82.973C82.9319 189.619 82.8908 190.051 82.8497 190.489C82.8223 190.928 82.8086 191.359 82.8086 191.784V199.575H80.2597L80.2392 197.437H80.4858C80.2666 198.15 79.8212 198.718 79.1497 199.143C78.4783 199.568 77.7177 199.78 76.8681 199.78ZM77.5875 197.807C78.396 197.807 79.047 197.526 79.5403 196.964C80.0336 196.389 80.2803 195.525 80.2803 194.374C80.2803 193.223 80.0336 192.367 79.5403 191.805C79.047 191.243 78.396 190.962 77.5875 190.962C76.779 190.962 76.1281 191.243 75.6348 191.805C75.1414 192.367 74.8948 193.223 74.8948 194.374C74.8948 195.525 75.1346 196.389 75.6142 196.964C76.1075 197.526 76.7653 197.807 77.5875 197.807ZM90.0465 199.78C88.8132 199.78 87.8813 199.458 87.251 198.814C86.6206 198.17 86.3054 197.204 86.3054 195.916V191.126H84.3115V189.194H86.3054V186.543L88.8748 185.885V189.194H91.6498V191.126H88.8748V195.751C88.8748 196.464 89.0119 196.964 89.2859 197.252C89.56 197.54 89.9369 197.684 90.4165 197.684C90.6769 197.684 90.8961 197.663 91.0743 197.622C91.2661 197.581 91.4511 197.526 91.6293 197.458V199.492C91.3963 199.588 91.1359 199.657 90.8482 199.698C90.5741 199.753 90.3069 199.78 90.0465 199.78ZM97.4034 199.78C96.499 199.78 95.7041 199.568 95.019 199.143C94.3338 198.705 93.7994 198.081 93.4157 197.273C93.0319 196.464 92.8401 195.498 92.8401 194.374C92.8401 193.251 93.0319 192.291 93.4157 191.496C93.7994 190.688 94.3338 190.071 95.019 189.646C95.7041 189.208 96.499 188.989 97.4034 188.989C98.2804 188.989 99.0478 189.208 99.7056 189.646C100.377 190.071 100.822 190.647 101.042 191.373H100.816L101.042 189.194H103.508C103.467 189.619 103.426 190.051 103.385 190.489C103.358 190.928 103.344 191.359 103.344 191.784V199.575H100.795L100.774 197.437H101.021C100.802 198.15 100.357 198.718 99.685 199.143C99.0136 199.568 98.253 199.78 97.4034 199.78ZM98.1228 197.807C98.9313 197.807 99.5823 197.526 100.076 196.964C100.569 196.389 100.816 195.525 100.816 194.374C100.816 193.223 100.569 192.367 100.076 191.805C99.5823 191.243 98.9313 190.962 98.1228 190.962C97.3143 190.962 96.6634 191.243 96.1701 191.805C95.6767 192.367 95.4301 193.223 95.4301 194.374C95.4301 195.525 95.6699 196.389 96.1495 196.964C96.6428 197.526 97.3006 197.807 98.1228 197.807ZM111.988 199.575V185.083H121.546V187.159H114.64V191.27H121.074V193.346H114.64V199.575H111.988ZM127.871 199.78C126.802 199.78 125.877 199.561 125.096 199.122C124.315 198.684 123.705 198.06 123.267 197.252C122.842 196.443 122.629 195.484 122.629 194.374C122.629 193.264 122.842 192.312 123.267 191.517C123.705 190.708 124.315 190.085 125.096 189.646C125.877 189.208 126.802 188.989 127.871 188.989C128.94 188.989 129.865 189.208 130.646 189.646C131.441 190.085 132.051 190.708 132.475 191.517C132.914 192.312 133.133 193.264 133.133 194.374C133.133 195.484 132.914 196.443 132.475 197.252C132.051 198.06 131.441 198.684 130.646 199.122C129.865 199.561 128.94 199.78 127.871 199.78ZM127.871 197.807C128.679 197.807 129.324 197.526 129.803 196.964C130.283 196.389 130.523 195.525 130.523 194.374C130.523 193.223 130.283 192.367 129.803 191.805C129.324 191.243 128.679 190.962 127.871 190.962C127.062 190.962 126.418 191.243 125.939 191.805C125.459 192.367 125.219 193.223 125.219 194.374C125.219 195.525 125.459 196.389 125.939 196.964C126.418 197.526 127.062 197.807 127.871 197.807ZM139.09 199.78C137.816 199.78 136.863 199.431 136.233 198.732C135.602 198.033 135.287 196.964 135.287 195.525V189.194H137.857V195.505C137.857 196.272 138.014 196.841 138.329 197.211C138.645 197.567 139.124 197.745 139.768 197.745C140.495 197.745 141.084 197.499 141.536 197.005C142.002 196.512 142.235 195.861 142.235 195.053V189.194H144.804V199.575H142.297V197.458H142.584C142.283 198.197 141.824 198.773 141.207 199.184C140.604 199.582 139.899 199.78 139.09 199.78ZM147.594 199.575V191.784C147.594 191.359 147.58 190.928 147.553 190.489C147.525 190.051 147.484 189.619 147.429 189.194H149.917L150.122 191.25H149.875C150.204 190.523 150.691 189.968 151.335 189.585C151.979 189.187 152.726 188.989 153.575 188.989C154.795 188.989 155.713 189.331 156.33 190.016C156.947 190.702 157.255 191.771 157.255 193.223V199.575H154.685V193.346C154.685 192.511 154.521 191.914 154.192 191.558C153.877 191.188 153.397 191.003 152.753 191.003C151.958 191.003 151.328 191.25 150.862 191.743C150.396 192.236 150.163 192.894 150.163 193.716V199.575H147.594ZM164.008 199.78C163.104 199.78 162.302 199.568 161.603 199.143C160.918 198.705 160.383 198.081 160 197.273C159.616 196.464 159.424 195.498 159.424 194.374C159.424 193.251 159.616 192.291 160 191.496C160.383 190.688 160.918 190.071 161.603 189.646C162.302 189.208 163.104 188.989 164.008 188.989C164.871 188.989 165.632 189.201 166.29 189.626C166.961 190.037 167.407 190.599 167.626 191.311H167.359V184.446H169.928V199.575H167.4V197.375H167.646C167.427 198.115 166.982 198.705 166.31 199.143C165.653 199.568 164.885 199.78 164.008 199.78ZM164.728 197.807C165.536 197.807 166.187 197.526 166.68 196.964C167.174 196.389 167.42 195.525 167.42 194.374C167.42 193.223 167.174 192.367 166.68 191.805C166.187 191.243 165.536 190.962 164.728 190.962C163.919 190.962 163.261 191.243 162.754 191.805C162.261 192.367 162.014 193.223 162.014 194.374C162.014 195.525 162.261 196.389 162.754 196.964C163.261 197.526 163.919 197.807 164.728 197.807Z" fill="#DF1024" fill-opacity="0.5"/>
<defs>
<clipPath id="clip0_634_55">
<rect width="60.7476" height="60.7476" fill="white" transform="translate(41.1318 77.6487) rotate(-20.139)"/>
</clipPath>
<clipPath id="clip1_634_55">
<rect width="54.2971" height="54.2971" fill="white" transform="matrix(-0.964693 -0.263378 -0.263378 0.964693 151.781 14.3007)"/>
</clipPath>
</defs>
</svg>
