<svg width="74" height="74" viewBox="0 0 74 74" fill="none" xmlns="http://www.w3.org/2000/svg">
<path d="M69.375 25.4375V11.5625H55.5V16.1875H32.375V9.25C32.3738 8.02375 31.8861 6.84807 31.019 5.98098C30.1519 5.11389 28.9762 4.62622 27.75 4.625H9.25C8.02375 4.62622 6.84807 5.11389 5.98098 5.98098C5.11389 6.84807 4.62622 8.02375 4.625 9.25V27.75C4.62622 28.9762 5.11389 30.1519 5.98098 31.019C6.84807 31.8861 8.02375 32.3738 9.25 32.375H27.75C28.9762 32.3738 30.1519 31.8861 31.019 31.019C31.8861 30.1519 32.3738 28.9762 32.375 27.75V20.8125C34.2144 20.8143 35.9779 21.5458 37.2785 22.8465C38.5792 24.1471 39.3107 25.9106 39.3125 27.75V48.5625H25.4375V43.9375H11.5625V57.8125H25.4375V53.1875H39.3125V57.8125C39.3137 59.0387 39.8014 60.2144 40.6685 61.0815C41.5356 61.9486 42.7113 62.4363 43.9375 62.4375H55.5V67.0625H69.375V53.1875H55.5V57.8125H43.9375V41.625H55.5V46.25H69.375V32.375H55.5V37H43.9375V27.75C43.929 25.2402 43.0962 22.8028 41.5672 20.8125H55.5V25.4375H69.375ZM9.25 27.75V9.25H27.75V27.75H9.25ZM20.8125 53.1875H16.1875V48.5625H20.8125V53.1875ZM60.125 57.8125H64.75V62.4375H60.125V57.8125ZM60.125 37H64.75V41.625H60.125V37ZM60.125 16.1875H64.75V20.8125H60.125V16.1875Z" fill="url(#paint0_linear_636_66)"/>
<defs>
<linearGradient id="paint0_linear_636_66" x1="-13.4303" y1="83.8726" x2="80.8525" y2="-11.411" gradientUnits="userSpaceOnUse">
<stop stop-color="#DF1024"/>
<stop offset="1" stop-color="#FF7B88"/>
</linearGradient>
</defs>
</svg>
