<svg width="68" height="66" viewBox="0 0 68 66" fill="none" xmlns="http://www.w3.org/2000/svg">
<rect x="0.0378048" y="0.0218266" width="17.374" height="17.374" transform="matrix(0.866025 -0.5 2.20305e-08 1 34.2768 32.6715)" fill="url(#paint0_linear_621_110)" stroke="#FF7B88" stroke-width="0.0873065"/>
<rect x="-2.60194e-09" y="0.0436532" width="17.374" height="17.374" transform="matrix(0.866025 0.5 -0.866025 0.5 34.3274 15.2131)" fill="url(#paint1_linear_621_110)" stroke="#FF7B88" stroke-width="0.0873065"/>
<rect x="0.0378048" y="0.0654799" width="17.374" height="17.374" transform="matrix(0.866025 0.5 -2.20305e-08 1 19.1725 23.903)" fill="url(#paint2_linear_621_110)" stroke="#FF7B88" stroke-width="0.0873065"/>
<g clip-path="url(#clip0_621_110)">
<path d="M61.7015 28.2672C61.4266 28.2672 61.1841 28.3669 60.9738 28.5663L60.3674 29.1727C60.1626 29.3776 60.0602 29.6228 60.0602 29.9085C60.0602 30.1996 60.1626 30.4421 60.3674 30.6362L62.7364 33.0133H57.0444C56.7641 33.0133 56.5363 33.1143 56.3612 33.3165C56.186 33.5186 56.0984 33.7625 56.0984 34.0482V35.0831C56.0984 35.3688 56.186 35.6127 56.3612 35.8148C56.5363 36.017 56.7641 36.118 57.0444 36.118H62.7364L60.3674 38.4951C60.1626 38.6892 60.0602 38.9317 60.0602 39.2228C60.0602 39.5139 60.1626 39.7564 60.3674 39.9505L60.9738 40.5569C61.1787 40.7617 61.4212 40.8641 61.7015 40.8641C61.9872 40.8641 62.2325 40.7617 62.4373 40.5569L67.7008 35.2933C67.9003 35.1047 68 34.8621 68 34.5657C68 34.2746 67.9003 34.0293 67.7008 33.8299L62.4373 28.5663C62.2271 28.3669 61.9818 28.2672 61.7015 28.2672Z" fill="#FF7B88"/>
</g>
<g clip-path="url(#clip1_621_110)">
<path d="M7.21279 28.2888C7.48769 28.2888 7.73025 28.3885 7.94047 28.5879L8.54687 29.1943C8.7517 29.3992 8.85411 29.6444 8.85411 29.9301C8.85411 30.2212 8.7517 30.4637 8.54687 30.6578L6.17786 33.0349H11.8699C12.1502 33.0349 12.378 33.1359 12.5532 33.3381C12.7283 33.5402 12.8159 33.7841 12.8159 34.0698V35.1047C12.8159 35.3904 12.7283 35.6343 12.5532 35.8364C12.378 36.0386 12.1502 36.1396 11.8699 36.1396H6.17786L8.54687 38.5167C8.7517 38.7108 8.85411 38.9533 8.85411 39.2444C8.85411 39.5355 8.7517 39.7781 8.54687 39.9721L7.94047 40.5785C7.73564 40.7833 7.49308 40.8857 7.21279 40.8857C6.9271 40.8857 6.68185 40.7833 6.47702 40.5785L1.21346 35.3149C1.01403 35.1263 0.914307 34.8837 0.914307 34.5873C0.914307 34.2962 1.01403 34.0509 1.21346 33.8515L6.47702 28.5879C6.68724 28.3885 6.93249 28.2888 7.21279 28.2888Z" fill="#FF7B88"/>
</g>
<g clip-path="url(#clip2_621_110)">
<path d="M40.7522 59.0348C40.7522 58.7599 40.6525 58.5173 40.4531 58.3071L39.8467 57.7007C39.6418 57.4959 39.3966 57.3934 39.1109 57.3934C38.8198 57.3934 38.5773 57.4959 38.3832 57.7007L36.0061 60.0697V54.3776C36.0061 54.0973 35.9051 53.8696 35.7029 53.6944C35.5008 53.5192 35.2569 53.4316 34.9712 53.4316H33.9363C33.6506 53.4316 33.4067 53.5192 33.2046 53.6944C33.0024 53.8696 32.9014 54.0973 32.9014 54.3776V60.0697L30.5243 57.7007C30.3302 57.4959 30.0877 57.3934 29.7966 57.3934C29.5055 57.3934 29.263 57.4959 29.0689 57.7007L28.4625 58.3071C28.2577 58.5119 28.1553 58.7545 28.1553 59.0348C28.1553 59.3205 28.2577 59.5657 28.4625 59.7705L33.7261 65.0341C33.9147 65.2335 34.1573 65.3333 34.4538 65.3333C34.7448 65.3333 34.9901 65.2335 35.1895 65.0341L40.4531 59.7705C40.6525 59.5603 40.7522 59.3151 40.7522 59.0348Z" fill="#FF7B88"/>
</g>
<g clip-path="url(#clip3_621_110)">
<path d="M59.9205 49.1322C59.7261 48.9378 59.4841 48.8368 59.1944 48.8292H58.3368C58.0472 48.8292 57.8013 48.9302 57.5993 49.1322C57.3935 49.338 57.2944 49.5819 57.302 49.864L57.2963 53.22L53.2714 49.1951C53.0732 48.9969 52.8407 48.9073 52.5739 48.9264C52.3071 48.9454 52.0727 49.056 51.8707 49.258L51.1389 49.9898C50.9369 50.1918 50.8263 50.4262 50.8073 50.693C50.7882 50.9598 50.8778 51.1923 51.076 51.3905L55.1009 55.4154L51.7449 55.4211C51.4629 55.4135 51.2189 55.5126 51.0131 55.7184C50.8073 55.9242 50.7082 56.1682 50.7158 56.4502L50.7158 57.3078C50.7158 57.5975 50.8149 57.8414 51.0131 58.0396C51.2151 58.2416 51.4609 58.3426 51.7506 58.3426L59.1944 58.3426C59.4688 58.3502 59.7109 58.2492 59.9205 58.0396C60.1263 57.8338 60.2292 57.5898 60.2292 57.3078L60.2292 49.864C60.2216 49.5743 60.1187 49.3304 59.9205 49.1322Z" fill="#FF7B88"/>
</g>
<g clip-path="url(#clip4_621_110)">
<path d="M9.51041 49.1322C9.7048 48.9378 9.94683 48.8368 10.2365 48.8292H11.0941C11.3837 48.8292 11.6296 48.9302 11.8316 49.1322C12.0374 49.338 12.1365 49.5819 12.1289 49.864L12.1346 53.22L16.1595 49.1951C16.3577 48.9969 16.5902 48.9073 16.857 48.9264C17.1238 48.9454 17.3582 49.056 17.5602 49.258L18.292 49.9898C18.494 50.1918 18.6046 50.4262 18.6236 50.693C18.6427 50.9598 18.5531 51.1923 18.3549 51.3905L14.33 55.4154L17.686 55.4211C17.9681 55.4135 18.212 55.5126 18.4178 55.7184C18.6236 55.9242 18.7227 56.1682 18.7151 56.4502L18.7151 57.3078C18.7151 57.5975 18.616 57.8414 18.4178 58.0396C18.2158 58.2416 17.97 58.3426 17.6803 58.3426L10.2365 58.3426C9.96207 58.3502 9.72004 58.2492 9.51041 58.0396C9.30459 57.8338 9.20168 57.5898 9.20168 57.3078L9.20168 49.864C9.20931 49.5743 9.31222 49.3304 9.51041 49.1322Z" fill="#FF7B88"/>
</g>
<g clip-path="url(#clip5_621_110)">
<path d="M40.7522 6.53249C40.7522 6.80739 40.6525 7.04995 40.4531 7.26017L39.8467 7.86657C39.6418 8.0714 39.3966 8.17381 39.1109 8.17381C38.8198 8.17381 38.5773 8.0714 38.3832 7.86657L36.0061 5.49756V11.1896C36.0061 11.4699 35.9051 11.6977 35.7029 11.8729C35.5008 12.048 35.2569 12.1356 34.9712 12.1356H33.9363C33.6506 12.1356 33.4067 12.048 33.2046 11.8729C33.0024 11.6977 32.9014 11.4699 32.9014 11.1896V5.49756L30.5243 7.86657C30.3302 8.0714 30.0877 8.17381 29.7966 8.17381C29.5055 8.17381 29.263 8.0714 29.0689 7.86657L28.4625 7.26017C28.2577 7.05534 28.1553 6.81278 28.1553 6.53249C28.1553 6.24681 28.2577 6.00155 28.4625 5.79672L33.7261 0.533166C33.9147 0.333728 34.1573 0.234009 34.4538 0.234009C34.7448 0.234009 34.9901 0.333728 35.1895 0.533166L40.4531 5.79672C40.6525 6.00694 40.7522 6.2522 40.7522 6.53249Z" fill="#FF7B88"/>
</g>
<g clip-path="url(#clip6_621_110)">
<path d="M17.6321 7.54215C17.8265 7.73654 17.9275 7.97856 17.9351 8.26823V9.12581C17.9351 9.41549 17.8341 9.66133 17.6321 9.86333C17.4263 10.0692 17.1823 10.1683 16.9003 10.1606L13.5443 10.1663L17.5692 14.1913C17.7674 14.3894 17.857 14.6219 17.8379 14.8888C17.8189 15.1556 17.7083 15.39 17.5063 15.592L16.7745 16.3238C16.5725 16.5258 16.3381 16.6363 16.0713 16.6554C15.8045 16.6744 15.572 16.5849 15.3738 16.3867L11.3489 12.3618L11.3432 15.7177C11.3508 15.9998 11.2517 16.2437 11.0459 16.4495C10.8401 16.6554 10.5961 16.7545 10.3141 16.7468L9.4565 16.7468C9.16682 16.7468 8.92289 16.6477 8.72469 16.4495C8.52269 16.2475 8.42168 16.0017 8.42168 15.712L8.42168 8.26824C8.41406 7.99381 8.51506 7.75178 8.72469 7.54215C8.93051 7.33633 9.17445 7.23342 9.4565 7.23342L16.9003 7.23342C17.19 7.24104 17.4339 7.34395 17.6321 7.54215Z" fill="#FF7B88"/>
</g>
<g clip-path="url(#clip7_621_110)">
<path d="M51.7991 7.19291C51.6047 7.38729 51.5037 7.62932 51.496 7.91899V8.77657C51.496 9.06624 51.5971 9.31208 51.7991 9.51409C52.0049 9.71991 52.2488 9.81901 52.5309 9.81138L55.8869 9.8171L51.862 13.842C51.6638 14.0402 51.5742 14.2727 51.5932 14.5395C51.6123 14.8063 51.7228 15.0407 51.9248 15.2427L52.6566 15.9745C52.8586 16.1765 53.0931 16.2871 53.3599 16.3061C53.6267 16.3252 53.8592 16.2356 54.0574 16.0374L58.0823 12.0125L58.088 15.3685C58.0804 15.6506 58.1795 15.8945 58.3853 16.1003C58.5911 16.3061 58.835 16.4052 59.1171 16.3976L59.9747 16.3976C60.2643 16.3976 60.5083 16.2985 60.7065 16.1003C60.9085 15.8983 61.0095 15.6525 61.0095 15.3628L61.0095 7.91899C61.0171 7.64457 60.9161 7.40254 60.7065 7.19291C60.5006 6.98709 60.2567 6.88418 59.9747 6.88418L52.5309 6.88418C52.2412 6.8918 51.9973 6.99471 51.7991 7.19291Z" fill="#FF7B88"/>
</g>
<defs>
<linearGradient id="paint0_linear_621_110" x1="2.11707" y1="18.5198" x2="19.8935" y2="2.37296" gradientUnits="userSpaceOnUse">
<stop stop-color="#DF1024"/>
<stop offset="1" stop-color="#FF7B88"/>
</linearGradient>
<linearGradient id="paint1_linear_621_110" x1="15.8024" y1="1.65888" x2="1.11075" y2="16.1" gradientUnits="userSpaceOnUse">
<stop stop-color="#DF1024"/>
<stop offset="1" stop-color="#FF7B88"/>
</linearGradient>
<linearGradient id="paint2_linear_621_110" x1="8.77072" y1="21.8066" x2="15.5797" y2="-0.789802" gradientUnits="userSpaceOnUse">
<stop stop-color="#DF1024"/>
<stop offset="1" stop-color="#FF7B88"/>
</linearGradient>
<clipPath id="clip0_621_110">
<rect width="12.9365" height="11.9016" fill="white" transform="translate(56.0984 41.0339) rotate(-90)"/>
</clipPath>
<clipPath id="clip1_621_110">
<rect width="12.9365" height="11.9016" fill="white" transform="matrix(1 0 0 -1 0.396973 40.5382)"/>
</clipPath>
<clipPath id="clip2_621_110">
<rect width="12.9365" height="11.9016" fill="white" transform="translate(27.9856 53.4318)"/>
</clipPath>
<clipPath id="clip3_621_110">
<rect width="12.9365" height="11.9016" fill="white" transform="translate(56.0786 62.6134) rotate(-135)"/>
</clipPath>
<clipPath id="clip4_621_110">
<rect width="12.9365" height="11.9016" fill="white" transform="matrix(0.707107 -0.707107 -0.707107 -0.707107 13.3525 62.6134)"/>
</clipPath>
<clipPath id="clip5_621_110">
<rect width="12.9365" height="11.9016" fill="white" transform="matrix(1 0 0 -1 27.9856 12.1355)"/>
</clipPath>
<clipPath id="clip6_621_110">
<rect width="12.9365" height="11.9016" fill="white" transform="matrix(0.707107 0.707107 0.707107 -0.707107 4.15088 11.384)"/>
</clipPath>
<clipPath id="clip7_621_110">
<rect width="12.9365" height="11.9016" fill="white" transform="translate(65.2803 11.0349) rotate(135)"/>
</clipPath>
</defs>
</svg>
