<svg width="75" height="64" viewBox="0 0 75 64" fill="none" xmlns="http://www.w3.org/2000/svg">
<path d="M26.7999 7.09927L37.3642 1L47.9284 7.09927L37.3642 13.1985M26.7999 7.09927L37.3642 13.1985M26.7999 7.09927L26.7999 19.2978L37.3642 25.3971V13.1985M37.8799 13.5035L47.3877 8.01416V18.9928L37.8799 24.4822V13.5035ZM37.3517 13.1985L47.9159 7.09927L47.9159 19.2978L37.3517 25.3971V13.1985ZM37.3642 1.60993L46.872 7.09927L37.3642 12.5886L27.8564 7.09927L37.3642 1.60993ZM27.3281 8.01416L36.836 13.5035V24.4822L27.3281 18.9928L27.3281 8.01416Z" stroke="url(#paint0_linear_621_141)" stroke-width="0.731912" stroke-linejoin="round"/>
<path d="M26.7999 44.9147L37.3642 38.8154L47.9284 44.9147L37.3642 51.014M26.7999 44.9147L37.3642 51.014M26.7999 44.9147L26.7999 57.1132L37.3642 63.2125V51.014M37.8799 51.3189L47.3877 45.8296V56.8083L37.8799 62.2976V51.3189ZM37.3517 51.014L47.9159 44.9147L47.9159 57.1132L37.3517 63.2125V51.014ZM37.3642 39.4254L46.872 44.9147L37.3642 50.404L27.8564 44.9147L37.3642 39.4254ZM27.3281 45.8296L36.836 51.3189V62.2976L27.3281 56.8083L27.3281 45.8296Z" stroke="url(#paint1_linear_621_141)" stroke-width="0.731912" stroke-linejoin="round"/>
<path d="M52.6249 26.007L63.1891 19.9077L73.7534 26.007L63.1891 32.1063M52.6249 26.007L63.1891 32.1063M52.6249 26.007L52.6249 38.2055L63.1891 44.3048V32.1063M63.7048 32.4112L73.2126 26.9219V37.9006L63.7048 43.3899V32.4112ZM63.1766 32.1062L73.7409 26.007L73.7409 38.2055L63.1766 44.3048V32.1062ZM63.1891 20.5176L72.6969 26.007L63.1891 31.4963L53.6813 26.007L63.1891 20.5176ZM53.1531 26.9219L62.6609 32.4112V43.3899L53.1531 37.9006L53.1531 26.9219Z" stroke="url(#paint2_linear_621_141)" stroke-width="0.731912" stroke-linejoin="round"/>
<path d="M1 26.007L11.5642 19.9077L22.1285 26.007L11.5642 32.1063M1 26.007L11.5642 32.1063M1 26.007L1 38.2055L11.5642 44.3048V32.1063M12.0799 32.4112L21.5878 26.9219V37.9006L12.0799 43.3899V32.4112ZM11.5517 32.1062L22.116 26.007L22.116 38.2055L11.5517 44.3048V32.1062ZM11.5642 20.5176L21.0721 26.007L11.5642 31.4963L2.05642 26.007L11.5642 20.5176ZM1.52821 26.9219L11.036 32.4112V43.3899L1.52821 37.9006L1.52821 26.9219Z" stroke="url(#paint3_linear_621_141)" stroke-width="0.731912" stroke-linejoin="round"/>
<line x1="32.0132" y1="17.7947" x2="22.3081" y2="23.2943" stroke="#686868" stroke-width="1.46382" stroke-linecap="round"/>
<line x1="57.8132" y1="36.7025" x2="48.1081" y2="42.202" stroke="#686868" stroke-width="1.46382" stroke-linecap="round"/>
<line x1="0.731912" y1="-0.731912" x2="11.8869" y2="-0.731912" transform="matrix(0.870022 0.493013 0.493013 -0.870022 17.041 35.7048)" stroke="#686868" stroke-width="1.46382" stroke-linecap="round"/>
<line x1="0.731912" y1="-0.731912" x2="11.8869" y2="-0.731912" transform="matrix(0.870022 0.493013 0.493013 -0.870022 43.512 16.7971)" stroke="#686868" stroke-width="1.46382" stroke-linecap="round"/>
<defs>
<linearGradient id="paint0_linear_621_141" x1="20.9083" y1="31.9655" x2="57.2269" y2="1.31406" gradientUnits="userSpaceOnUse">
<stop stop-color="#DF1024"/>
<stop offset="1" stop-color="#FF7B88"/>
</linearGradient>
<linearGradient id="paint1_linear_621_141" x1="20.9083" y1="69.7809" x2="57.2269" y2="39.1295" gradientUnits="userSpaceOnUse">
<stop stop-color="#DF1024"/>
<stop offset="1" stop-color="#FF7B88"/>
</linearGradient>
<linearGradient id="paint2_linear_621_141" x1="46.7333" y1="50.8732" x2="83.0518" y2="20.2218" gradientUnits="userSpaceOnUse">
<stop stop-color="#DF1024"/>
<stop offset="1" stop-color="#FF7B88"/>
</linearGradient>
<linearGradient id="paint3_linear_621_141" x1="-4.89159" y1="50.8732" x2="31.427" y2="20.2218" gradientUnits="userSpaceOnUse">
<stop stop-color="#DF1024"/>
<stop offset="1" stop-color="#FF7B88"/>
</linearGradient>
</defs>
</svg>
