<svg width="70" height="77" viewBox="0 0 70 77" fill="none" xmlns="http://www.w3.org/2000/svg">
<rect x="0.331843" y="0.190337" width="13.245" height="13.3824" transform="matrix(0.863175 -0.504905 2.17447e-08 1 20.0659 55.5151)" fill="url(#paint0_linear_52_378)" stroke="url(#paint1_linear_52_378)" stroke-width="0.768889"/>
<rect x="0.331843" y="0.578552" width="13.245" height="13.3824" transform="matrix(0.863175 0.504905 -2.17447e-08 1 8.11559 48.1042)" fill="url(#paint2_linear_52_378)" stroke="url(#paint3_linear_52_378)" stroke-width="0.768889"/>
<rect x="0.663686" width="13.245" height="13.245" transform="matrix(0.863175 -0.504905 0.863175 0.504905 8.161 48.6068)" fill="url(#paint4_linear_52_378)" stroke="url(#paint5_linear_52_378)" stroke-width="0.768889"/>
<rect x="0.331843" y="0.190337" width="13.245" height="13.3824" transform="matrix(0.863175 -0.504905 2.17447e-08 1 57.0027 60.7037)" fill="url(#paint6_linear_52_378)" stroke="url(#paint7_linear_52_378)" stroke-width="0.768889"/>
<rect x="0.331843" y="0.578552" width="13.245" height="13.3824" transform="matrix(0.863175 0.504905 -2.17447e-08 1 45.0525 53.293)" fill="url(#paint8_linear_52_378)" stroke="url(#paint9_linear_52_378)" stroke-width="0.768889"/>
<rect x="0.663686" width="13.245" height="13.245" transform="matrix(0.863175 -0.504905 0.863175 0.504905 45.0979 53.7957)" fill="url(#paint10_linear_52_378)" stroke="url(#paint11_linear_52_378)" stroke-width="0.768889"/>
<rect x="0.331843" y="0.190337" width="13.245" height="13.3824" transform="matrix(0.863175 -0.504905 2.17447e-08 1 32.6368 62.9051)" fill="url(#paint12_linear_52_378)" stroke="url(#paint13_linear_52_378)" stroke-width="0.768889"/>
<rect x="0.331843" y="0.578552" width="13.245" height="13.3824" transform="matrix(0.863175 0.504905 -2.17447e-08 1 20.6866 55.4944)" fill="url(#paint14_linear_52_378)" stroke="url(#paint15_linear_52_378)" stroke-width="0.768889"/>
<rect x="0.663686" width="13.245" height="13.245" transform="matrix(0.863175 -0.504905 0.863175 0.504905 20.732 55.9971)" fill="url(#paint16_linear_52_378)" stroke="url(#paint17_linear_52_378)" stroke-width="0.768889"/>
<rect x="0.331843" y="0.190337" width="13.245" height="13.3824" transform="matrix(0.863175 -0.504905 2.17447e-08 1 33.1024 14.3189)" fill="url(#paint18_linear_52_378)" stroke="url(#paint19_linear_52_378)" stroke-width="0.768889"/>
<rect x="0.331843" y="0.578552" width="13.245" height="13.3824" transform="matrix(0.863175 0.504905 -2.17447e-08 1 21.1521 6.90813)" fill="url(#paint20_linear_52_378)" stroke="url(#paint21_linear_52_378)" stroke-width="0.768889"/>
<rect x="0.663686" width="13.245" height="13.245" transform="matrix(0.863175 -0.504905 0.863175 0.504905 21.1975 7.41078)" fill="url(#paint22_linear_52_378)" stroke="url(#paint23_linear_52_378)" stroke-width="0.768889"/>
<rect x="0.331843" y="0.190337" width="13.245" height="13.3824" transform="matrix(0.863175 -0.504905 2.17447e-08 1 45.2078 24.8537)" fill="url(#paint24_linear_52_378)" stroke="url(#paint25_linear_52_378)" stroke-width="0.768889"/>
<rect x="0.331843" y="0.578552" width="13.245" height="13.3824" transform="matrix(0.863175 0.504905 -2.17447e-08 1 33.2576 17.443)" fill="url(#paint26_linear_52_378)" stroke="url(#paint27_linear_52_378)" stroke-width="0.768889"/>
<rect x="0.663686" width="13.245" height="13.245" transform="matrix(0.863175 -0.504905 0.863175 0.504905 33.303 17.9457)" fill="url(#paint28_linear_52_378)" stroke="url(#paint29_linear_52_378)" stroke-width="0.768889"/>
<rect x="0.331843" y="0.190337" width="13.245" height="13.3824" transform="matrix(0.863175 -0.504905 2.17447e-08 1 12.1932 44.98)" fill="url(#paint30_linear_52_378)" stroke="url(#paint31_linear_52_378)" stroke-width="0.768889"/>
<rect x="0.331843" y="0.578552" width="13.245" height="13.3824" transform="matrix(0.863175 0.504905 -2.59986e-08 1 0.0454044 37.5804)" fill="url(#paint32_linear_52_378)" stroke="url(#paint33_linear_52_378)" stroke-width="0.768889"/>
<rect x="0.663686" width="13.245" height="13.245" transform="matrix(0.863175 -0.504905 0.863175 0.504905 0.288441 38.0719)" fill="url(#paint34_linear_52_378)" stroke="url(#paint35_linear_52_378)" stroke-width="0.768889"/>
<rect x="0.331843" y="0.190337" width="13.245" height="13.3824" transform="matrix(0.863175 -0.504905 2.17447e-08 1 32.7919 47.6531)" fill="url(#paint36_linear_52_378)" stroke="url(#paint37_linear_52_378)" stroke-width="0.768889"/>
<rect x="0.331843" y="0.578552" width="13.245" height="13.3824" transform="matrix(0.863175 0.504905 -2.17447e-08 1 20.8418 40.2424)" fill="url(#paint38_linear_52_378)" stroke="url(#paint39_linear_52_378)" stroke-width="0.768889"/>
<rect x="0.663686" width="13.245" height="13.245" transform="matrix(0.863175 -0.504905 0.863175 0.504905 20.8872 40.745)" fill="url(#paint40_linear_52_378)" stroke="url(#paint41_linear_52_378)" stroke-width="0.768889"/>
<rect x="0.331843" y="0.190337" width="13.245" height="13.3824" transform="matrix(0.863175 -0.504905 2.17447e-08 1 33.1024 32.4012)" fill="url(#paint42_linear_52_378)" stroke="url(#paint43_linear_52_378)" stroke-width="0.768889"/>
<rect x="0.331843" y="0.578552" width="13.245" height="13.3824" transform="matrix(0.863175 0.504905 -2.17447e-08 1 21.1521 24.9904)" fill="url(#paint44_linear_52_378)" stroke="url(#paint45_linear_52_378)" stroke-width="0.768889"/>
<rect x="0.663686" width="13.245" height="13.245" transform="matrix(0.863175 -0.504905 0.863175 0.504905 21.1975 25.4931)" fill="url(#paint46_linear_52_378)" stroke="url(#paint47_linear_52_378)" stroke-width="0.768889"/>
<rect x="0.331843" y="0.190337" width="13.245" height="13.3824" transform="matrix(0.863175 -0.504905 2.17447e-08 1 20.3762 24.8537)" fill="url(#paint48_linear_52_378)" stroke="url(#paint49_linear_52_378)" stroke-width="0.768889"/>
<rect x="0.331843" y="0.578552" width="13.245" height="13.3824" transform="matrix(0.863175 0.504905 -2.17447e-08 1 8.42602 17.443)" fill="url(#paint50_linear_52_378)" stroke="url(#paint51_linear_52_378)" stroke-width="0.768889"/>
<rect x="0.663686" width="13.245" height="13.245" transform="matrix(0.863175 -0.504905 0.863175 0.504905 8.47142 17.9457)" fill="url(#paint52_linear_52_378)" stroke="url(#paint53_linear_52_378)" stroke-width="0.768889"/>
<defs>
<linearGradient id="paint0_linear_52_378" x1="9.15893e-09" y1="0.471711" x2="17.2983" y2="-2.61775" gradientUnits="userSpaceOnUse">
<stop stop-color="#CD0202"/>
<stop offset="1" stop-color="#CD4F6E" stop-opacity="0.35"/>
</linearGradient>
<linearGradient id="paint1_linear_52_378" x1="7.00693" y1="0" x2="7.00693" y2="14.1513" gradientUnits="userSpaceOnUse">
<stop stop-color="#EF3A03" stop-opacity="0"/>
<stop offset="1" stop-color="#EF032A"/>
</linearGradient>
<linearGradient id="paint2_linear_52_378" x1="4.55021" y1="0.0349739" x2="17.9521" y2="14.8222" gradientUnits="userSpaceOnUse">
<stop stop-color="#551301"/>
<stop offset="1" stop-color="#550111" stop-opacity="0.6"/>
</linearGradient>
<linearGradient id="paint3_linear_52_378" x1="7.00693" y1="0" x2="7.00693" y2="14.1513" gradientUnits="userSpaceOnUse">
<stop stop-color="#EF3A03" stop-opacity="0"/>
<stop offset="1" stop-color="#EF032A"/>
</linearGradient>
<linearGradient id="paint4_linear_52_378" x1="4.55021" y1="0.0346342" x2="17.8086" y2="14.807" gradientUnits="userSpaceOnUse">
<stop stop-color="#130155"/>
<stop offset="1" stop-color="#130155" stop-opacity="0.6"/>
</linearGradient>
<linearGradient id="paint5_linear_52_378" x1="7.00693" y1="0" x2="7.00693" y2="14.0139" gradientUnits="userSpaceOnUse">
<stop stop-color="#EF3A03" stop-opacity="0"/>
<stop offset="1" stop-color="#EF032A"/>
</linearGradient>
<linearGradient id="paint6_linear_52_378" x1="9.15893e-09" y1="0.471711" x2="17.2983" y2="-2.61775" gradientUnits="userSpaceOnUse">
<stop stop-color="#CD0202"/>
<stop offset="1" stop-color="#CD4F6E" stop-opacity="0.35"/>
</linearGradient>
<linearGradient id="paint7_linear_52_378" x1="7.00693" y1="0" x2="7.00693" y2="14.1513" gradientUnits="userSpaceOnUse">
<stop stop-color="#EF3A03" stop-opacity="0"/>
<stop offset="1" stop-color="#EF032A"/>
</linearGradient>
<linearGradient id="paint8_linear_52_378" x1="4.55021" y1="0.0349739" x2="17.9521" y2="14.8222" gradientUnits="userSpaceOnUse">
<stop stop-color="#551301"/>
<stop offset="1" stop-color="#550111" stop-opacity="0.6"/>
</linearGradient>
<linearGradient id="paint9_linear_52_378" x1="7.00693" y1="0" x2="7.00693" y2="14.1513" gradientUnits="userSpaceOnUse">
<stop stop-color="#EF3A03" stop-opacity="0"/>
<stop offset="1" stop-color="#EF032A"/>
</linearGradient>
<linearGradient id="paint10_linear_52_378" x1="4.55021" y1="0.0346342" x2="17.8086" y2="14.807" gradientUnits="userSpaceOnUse">
<stop stop-color="#551301"/>
<stop offset="1" stop-color="#550111" stop-opacity="0.6"/>
</linearGradient>
<linearGradient id="paint11_linear_52_378" x1="7.00693" y1="0" x2="7.00693" y2="14.0139" gradientUnits="userSpaceOnUse">
<stop stop-color="#EF3A03" stop-opacity="0"/>
<stop offset="1" stop-color="#EF032A"/>
</linearGradient>
<linearGradient id="paint12_linear_52_378" x1="9.15893e-09" y1="0.471711" x2="17.2983" y2="-2.61775" gradientUnits="userSpaceOnUse">
<stop stop-color="#CD0202"/>
<stop offset="1" stop-color="#CD4F6E" stop-opacity="0.35"/>
</linearGradient>
<linearGradient id="paint13_linear_52_378" x1="7.00693" y1="0" x2="7.00693" y2="14.1513" gradientUnits="userSpaceOnUse">
<stop stop-color="#EF3A03" stop-opacity="0"/>
<stop offset="1" stop-color="#EF032A"/>
</linearGradient>
<linearGradient id="paint14_linear_52_378" x1="4.55021" y1="0.0349739" x2="17.9521" y2="14.8222" gradientUnits="userSpaceOnUse">
<stop stop-color="#551301"/>
<stop offset="1" stop-color="#550111" stop-opacity="0.6"/>
</linearGradient>
<linearGradient id="paint15_linear_52_378" x1="7.00693" y1="0" x2="7.00693" y2="14.1513" gradientUnits="userSpaceOnUse">
<stop stop-color="#EF3A03" stop-opacity="0"/>
<stop offset="1" stop-color="#EF032A"/>
</linearGradient>
<linearGradient id="paint16_linear_52_378" x1="4.55021" y1="0.0346342" x2="17.8086" y2="14.807" gradientUnits="userSpaceOnUse">
<stop stop-color="#130155"/>
<stop offset="1" stop-color="#130155" stop-opacity="0.6"/>
</linearGradient>
<linearGradient id="paint17_linear_52_378" x1="7.00693" y1="0" x2="7.00693" y2="14.0139" gradientUnits="userSpaceOnUse">
<stop stop-color="#EF3A03" stop-opacity="0"/>
<stop offset="1" stop-color="#EF032A"/>
</linearGradient>
<linearGradient id="paint18_linear_52_378" x1="9.15893e-09" y1="0.471711" x2="17.2983" y2="-2.61775" gradientUnits="userSpaceOnUse">
<stop stop-color="#CD0202"/>
<stop offset="1" stop-color="#CD4F6E" stop-opacity="0.35"/>
</linearGradient>
<linearGradient id="paint19_linear_52_378" x1="7.00693" y1="0" x2="7.00693" y2="14.1513" gradientUnits="userSpaceOnUse">
<stop stop-color="#03E7EF" stop-opacity="0"/>
<stop offset="1" stop-color="#03E7EF"/>
</linearGradient>
<linearGradient id="paint20_linear_52_378" x1="14.0242" y1="-0.398331" x2="-16.2504" y2="-1.78145" gradientUnits="userSpaceOnUse">
<stop stop-color="white"/>
<stop offset="1" stop-color="#050327" stop-opacity="0"/>
</linearGradient>
<linearGradient id="paint21_linear_52_378" x1="7.00693" y1="0" x2="7.00693" y2="14.1513" gradientUnits="userSpaceOnUse">
<stop stop-color="#EF3A03" stop-opacity="0"/>
<stop offset="1" stop-color="#EF032A"/>
</linearGradient>
<linearGradient id="paint22_linear_52_378" x1="4.55021" y1="0.0346342" x2="17.8086" y2="14.807" gradientUnits="userSpaceOnUse">
<stop stop-color="#551301"/>
<stop offset="1" stop-color="#550111" stop-opacity="0.6"/>
</linearGradient>
<linearGradient id="paint23_linear_52_378" x1="7.00693" y1="0" x2="7.00693" y2="14.0139" gradientUnits="userSpaceOnUse">
<stop stop-color="#EF3A03" stop-opacity="0"/>
<stop offset="1" stop-color="#EF032A"/>
</linearGradient>
<linearGradient id="paint24_linear_52_378" x1="9.15893e-09" y1="0.471711" x2="17.2983" y2="-2.61775" gradientUnits="userSpaceOnUse">
<stop stop-color="#CD0202"/>
<stop offset="1" stop-color="#CD4F6E" stop-opacity="0.35"/>
</linearGradient>
<linearGradient id="paint25_linear_52_378" x1="7.00693" y1="0" x2="7.00693" y2="14.1513" gradientUnits="userSpaceOnUse">
<stop stop-color="#EF3A03" stop-opacity="0"/>
<stop offset="1" stop-color="#EF032A"/>
</linearGradient>
<linearGradient id="paint26_linear_52_378" x1="14.0242" y1="-0.398331" x2="-16.2504" y2="-1.78145" gradientUnits="userSpaceOnUse">
<stop stop-color="white"/>
<stop offset="1" stop-color="#050327" stop-opacity="0"/>
</linearGradient>
<linearGradient id="paint27_linear_52_378" x1="7.00693" y1="0" x2="7.00693" y2="14.1513" gradientUnits="userSpaceOnUse">
<stop stop-color="#EF3A03" stop-opacity="0"/>
<stop offset="1" stop-color="#EF032A"/>
</linearGradient>
<linearGradient id="paint28_linear_52_378" x1="4.55021" y1="0.0346342" x2="17.8086" y2="14.807" gradientUnits="userSpaceOnUse">
<stop stop-color="#551301"/>
<stop offset="1" stop-color="#550111" stop-opacity="0.6"/>
</linearGradient>
<linearGradient id="paint29_linear_52_378" x1="7.00693" y1="0" x2="7.00693" y2="14.0139" gradientUnits="userSpaceOnUse">
<stop stop-color="#EF3A03" stop-opacity="0"/>
<stop offset="1" stop-color="#EF032A"/>
</linearGradient>
<linearGradient id="paint30_linear_52_378" x1="9.15893e-09" y1="0.471711" x2="17.2983" y2="-2.61775" gradientUnits="userSpaceOnUse">
<stop stop-color="#CD0202"/>
<stop offset="1" stop-color="#CD4F6E" stop-opacity="0.35"/>
</linearGradient>
<linearGradient id="paint31_linear_52_378" x1="7.00693" y1="0" x2="7.00693" y2="14.1513" gradientUnits="userSpaceOnUse">
<stop stop-color="#EF3A03" stop-opacity="0"/>
<stop offset="1" stop-color="#EF032A"/>
</linearGradient>
<linearGradient id="paint32_linear_52_378" x1="14.0242" y1="-0.398331" x2="-16.2504" y2="-1.78145" gradientUnits="userSpaceOnUse">
<stop stop-color="white"/>
<stop offset="1" stop-color="#050327" stop-opacity="0"/>
</linearGradient>
<linearGradient id="paint33_linear_52_378" x1="7.00693" y1="0" x2="7.00693" y2="14.1513" gradientUnits="userSpaceOnUse">
<stop stop-color="#EF3A03" stop-opacity="0"/>
<stop offset="1" stop-color="#EF032A"/>
</linearGradient>
<linearGradient id="paint34_linear_52_378" x1="4.55021" y1="0.0346342" x2="17.8086" y2="14.807" gradientUnits="userSpaceOnUse">
<stop stop-color="#551301"/>
<stop offset="1" stop-color="#550111" stop-opacity="0.6"/>
</linearGradient>
<linearGradient id="paint35_linear_52_378" x1="7.00693" y1="0" x2="7.00693" y2="14.0139" gradientUnits="userSpaceOnUse">
<stop stop-color="#EF3A03" stop-opacity="0"/>
<stop offset="1" stop-color="#EF032A"/>
</linearGradient>
<linearGradient id="paint36_linear_52_378" x1="9.15893e-09" y1="0.471711" x2="17.2983" y2="-2.61775" gradientUnits="userSpaceOnUse">
<stop stop-color="#CD0202"/>
<stop offset="1" stop-color="#CD4F6E" stop-opacity="0.35"/>
</linearGradient>
<linearGradient id="paint37_linear_52_378" x1="7.00693" y1="0" x2="7.00693" y2="14.1513" gradientUnits="userSpaceOnUse">
<stop stop-color="#EF3A03" stop-opacity="0"/>
<stop offset="1" stop-color="#EF032A"/>
</linearGradient>
<linearGradient id="paint38_linear_52_378" x1="4.55021" y1="0.0349739" x2="17.9521" y2="14.8222" gradientUnits="userSpaceOnUse">
<stop stop-color="#551301"/>
<stop offset="1" stop-color="#550111" stop-opacity="0.6"/>
</linearGradient>
<linearGradient id="paint39_linear_52_378" x1="7.00693" y1="0" x2="7.00693" y2="14.1513" gradientUnits="userSpaceOnUse">
<stop stop-color="#EF3A03" stop-opacity="0"/>
<stop offset="1" stop-color="#EF032A"/>
</linearGradient>
<linearGradient id="paint40_linear_52_378" x1="4.55021" y1="0.0346342" x2="17.8086" y2="14.807" gradientUnits="userSpaceOnUse">
<stop stop-color="#551301"/>
<stop offset="1" stop-color="#550111" stop-opacity="0.6"/>
</linearGradient>
<linearGradient id="paint41_linear_52_378" x1="7.00693" y1="0" x2="7.00693" y2="14.0139" gradientUnits="userSpaceOnUse">
<stop stop-color="#EF3A03" stop-opacity="0"/>
<stop offset="1" stop-color="#EF032A"/>
</linearGradient>
<linearGradient id="paint42_linear_52_378" x1="9.15893e-09" y1="0.471711" x2="17.2983" y2="-2.61775" gradientUnits="userSpaceOnUse">
<stop stop-color="#CD0202"/>
<stop offset="1" stop-color="#CD4F6E" stop-opacity="0.35"/>
</linearGradient>
<linearGradient id="paint43_linear_52_378" x1="7.00693" y1="0" x2="7.00693" y2="14.1513" gradientUnits="userSpaceOnUse">
<stop stop-color="#EF3A03" stop-opacity="0"/>
<stop offset="1" stop-color="#EF032A"/>
</linearGradient>
<linearGradient id="paint44_linear_52_378" x1="9.15893e-09" y1="0.471711" x2="17.2983" y2="-2.61775" gradientUnits="userSpaceOnUse">
<stop stop-color="#CD0202"/>
<stop offset="1" stop-color="#CD4F6E" stop-opacity="0.35"/>
</linearGradient>
<linearGradient id="paint45_linear_52_378" x1="7.00693" y1="0" x2="7.00693" y2="14.1513" gradientUnits="userSpaceOnUse">
<stop stop-color="#EF3A03" stop-opacity="0"/>
<stop offset="1" stop-color="#EF032A"/>
</linearGradient>
<linearGradient id="paint46_linear_52_378" x1="4.55021" y1="0.0346342" x2="17.8086" y2="14.807" gradientUnits="userSpaceOnUse">
<stop stop-color="#551301"/>
<stop offset="1" stop-color="#550111" stop-opacity="0.6"/>
</linearGradient>
<linearGradient id="paint47_linear_52_378" x1="7.00693" y1="0" x2="7.00693" y2="14.0139" gradientUnits="userSpaceOnUse">
<stop stop-color="#EF3A03" stop-opacity="0"/>
<stop offset="1" stop-color="#EF032A"/>
</linearGradient>
<linearGradient id="paint48_linear_52_378" x1="9.15893e-09" y1="0.471711" x2="17.2983" y2="-2.61775" gradientUnits="userSpaceOnUse">
<stop stop-color="#CD0202"/>
<stop offset="1" stop-color="#CD4F6E" stop-opacity="0.35"/>
</linearGradient>
<linearGradient id="paint49_linear_52_378" x1="7.00693" y1="0" x2="7.00693" y2="14.1513" gradientUnits="userSpaceOnUse">
<stop stop-color="#EF3A03" stop-opacity="0"/>
<stop offset="1" stop-color="#EF032A"/>
</linearGradient>
<linearGradient id="paint50_linear_52_378" x1="9.15893e-09" y1="0.471711" x2="17.2983" y2="-2.61775" gradientUnits="userSpaceOnUse">
<stop stop-color="#CD0202"/>
<stop offset="1" stop-color="#CD4F6E" stop-opacity="0.35"/>
</linearGradient>
<linearGradient id="paint51_linear_52_378" x1="7.00693" y1="0" x2="7.00693" y2="14.1513" gradientUnits="userSpaceOnUse">
<stop stop-color="#EF3A03" stop-opacity="0"/>
<stop offset="1" stop-color="#EF032A"/>
</linearGradient>
<linearGradient id="paint52_linear_52_378" x1="4.55021" y1="0.0346342" x2="17.8086" y2="14.807" gradientUnits="userSpaceOnUse">
<stop stop-color="#551301"/>
<stop offset="1" stop-color="#550111" stop-opacity="0.6"/>
</linearGradient>
<linearGradient id="paint53_linear_52_378" x1="7.00693" y1="0" x2="7.00693" y2="14.0139" gradientUnits="userSpaceOnUse">
<stop stop-color="#EF3A03" stop-opacity="0"/>
<stop offset="1" stop-color="#EF032A"/>
</linearGradient>
</defs>
</svg>
