<svg width="84" height="70" viewBox="0 0 84 70" fill="none" xmlns="http://www.w3.org/2000/svg">
<path d="M76.2042 43.0831C75.6939 41.9014 74.958 40.8306 74.0379 39.9306C73.117 39.0279 72.0313 38.3106 70.8398 37.8176C69.6042 37.3043 68.279 37.0416 66.9411 37.0447C65.0641 37.0447 63.2328 37.5587 61.6413 38.5295C61.2606 38.7618 60.8989 39.0169 60.5563 39.2948C60.2136 39.0169 59.8519 38.7618 59.4712 38.5295C57.8797 37.5587 56.0484 37.0447 54.1714 37.0447C52.8198 37.0447 51.5101 37.3036 50.2728 37.8176C49.0773 38.3125 47.9998 39.0245 47.0746 39.9306C46.1533 40.8296 45.4172 41.9007 44.9083 43.0831C44.3791 44.3128 44.1088 45.6187 44.1088 46.9627C44.1088 48.2305 44.3677 49.5517 44.8816 50.8956C45.3119 52.0188 45.9286 53.1838 46.7168 54.3603C47.9656 56.222 49.6826 58.1637 51.8147 60.1321C55.3479 63.395 58.8468 65.6489 58.9953 65.7403L59.8976 66.319C60.2974 66.5741 60.8113 66.5741 61.2111 66.319L62.1134 65.7403C62.2619 65.6451 65.757 63.395 69.294 60.1321C71.4261 58.1637 73.1432 56.222 74.392 54.3603C75.1801 53.1838 75.8007 52.0188 76.2271 50.8956C76.7411 49.5517 77 48.2305 77 46.9627C77.0038 45.6187 76.7334 44.3128 76.2042 43.0831Z" fill="url(#paint0_linear_635_59)"/>
<path d="M50.1407 61.2165H10.9008C8.14526 61.2165 5.90942 58.9807 5.90942 56.2251V51.4517C5.90942 43.2228 12.5859 36.5463 20.8148 36.5463H22.6193C25.2147 37.7169 28.0747 38.3822 31.096 38.3822C34.1165 38.3822 36.9877 37.7172 39.5731 36.5463H41.3771C41.5531 36.5463 41.9334 36.6048 42.4456 36.7231C42.9419 36.8378 43.5188 36.9984 44.066 37.1799C44.617 37.3626 45.1194 37.5604 45.4755 37.7463C45.5616 37.7912 45.6339 37.8328 45.6933 37.8704C45.2808 38.3835 44.8956 38.8417 44.5366 39.2686C44.4278 39.3981 44.3214 39.5246 44.2174 39.6489C43.7036 40.2631 43.2445 40.8275 42.8652 41.396C42.0892 42.5593 41.6525 43.7336 41.6525 45.4391C41.6525 51.9258 45.4273 57.4748 50.1407 61.2165ZM45.8842 38.0199C45.8838 38.0198 45.8813 38.017 45.8776 38.0114C45.8828 38.0171 45.8846 38.0199 45.8842 38.0199ZM45.267 17.6708C45.267 25.4981 38.9233 31.8418 31.096 31.8418C23.2687 31.8418 16.9249 25.4981 16.9249 17.6708C16.9249 9.84346 23.2687 3.49975 31.096 3.49975C38.9233 3.49975 45.267 9.84346 45.267 17.6708Z" fill="url(#paint1_linear_635_59)" stroke="url(#paint2_linear_635_59)" stroke-width="1.03271"/>
<defs>
<linearGradient id="paint0_linear_635_59" x1="44.1088" y1="38.0269" x2="84.3719" y2="29.9212" gradientUnits="userSpaceOnUse">
<stop stop-color="#CD0202"/>
<stop offset="1" stop-color="#CD4F6E" stop-opacity="0.35"/>
</linearGradient>
<linearGradient id="paint1_linear_635_59" x1="5.39307" y1="4.94171" x2="63.1991" y2="-3.27439" gradientUnits="userSpaceOnUse">
<stop stop-color="#CD0202"/>
<stop offset="1" stop-color="#CD4F6E" stop-opacity="0.35"/>
</linearGradient>
<linearGradient id="paint2_linear_635_59" x1="5.39307" y1="4.94171" x2="63.1991" y2="-3.27439" gradientUnits="userSpaceOnUse">
<stop stop-color="#CD0202"/>
<stop offset="1" stop-color="#CD4F6E" stop-opacity="0.35"/>
</linearGradient>
</defs>
</svg>
